<svg xmlns="http://www.w3.org/2000/svg" width="760" height="430" viewBox="0 0 760 430"><defs><linearGradient id="g" x1="0" x2="1" y1="0" y2="1"><stop offset="0" stop-color="#0f172a"/><stop offset="1" stop-color="#2563eb"/></linearGradient><linearGradient id="b" x1="0" x2="1"><stop offset="0" stop-color="#38bdf8"/><stop offset="1" stop-color="#22c55e"/></linearGradient></defs><rect width="760" height="430" rx="36" fill="url(#g)"/><circle cx="650" cy="70" r="110" fill="#38bdf8" opacity=".14"/><circle cx="110" cy="360" r="140" fill="#f59e0b" opacity=".14"/><rect x="58" y="62" width="185" height="300" rx="20" fill="#ffffff" opacity=".1"/><rect x="284" y="62" width="418" height="70" rx="20" fill="#ffffff" opacity=".14"/><rect x="284" y="162" width="128" height="160" rx="20" fill="#ffffff" opacity=".16"/><rect x="438" y="162" width="128" height="160" rx="20" fill="#ffffff" opacity=".16"/><rect x="592" y="162" width="110" height="160" rx="20" fill="#ffffff" opacity=".16"/><rect x="88" y="96" width="58" height="190" rx="12" fill="#fef3c7"/><rect x="151" y="125" width="58" height="161" rx="12" fill="#93c5fd"/><rect x="96" y="295" width="105" height="14" rx="7" fill="#fff" opacity=".72"/><path d="M323 263c40-78 79-54 118-97 38-41 73-33 100 7 22 31 50 15 72 54" fill="none" stroke="url(#b)" stroke-width="13" stroke-linecap="round"/><circle cx="342" cy="248" r="12" fill="#22c55e"/><circle cx="448" cy="174" r="12" fill="#38bdf8"/><circle cx="610" cy="228" r="12" fill="#f59e0b"/><text x="284" y="378" fill="#fff" font-family="Arial" font-size="28" font-weight="800">Library Management Dashboard</text></svg>