<svg xmlns="http://www.w3.org/2000/svg" viewBox="0 0 1440 320"><defs><linearGradient id="g" x1="0" x2="1"><stop stop-color="#37E8FF"/><stop offset=".5" stop-color="#6177FF"/><stop offset="1" stop-color="#FF3D9A"/></linearGradient></defs><path fill="url(#g)" fill-opacity=".46" d="M0,192L60,176C120,160,240,128,360,149.3C480,171,600,245,720,245.3C840,245,960,171,1080,149.3C1200,128,1320,160,1380,176L1440,192L1440,320L0,320Z"/><path fill="#ffffff" fill-opacity=".16" d="M0,224L80,208C160,192,320,160,480,176C640,192,800,256,960,250.7C1120,245,1280,171,1360,133.3L1440,96L1440,320L0,320Z"/></svg>