<svg xmlns="http://www.w3.org/2000/svg" width="820" height="430" viewBox="0 0 820 430"><defs><linearGradient id="a" x1="0" x2="1"><stop offset="0" stop-color="#1d4ed8"/><stop offset="1" stop-color="#0ea5e9"/></linearGradient></defs><rect width="820" height="430" rx="34" fill="#f8fafc"/><path d="M0 0h820v210C640 178 570 84 414 118 253 153 189 89 0 124z" fill="url(#a)"/><circle cx="690" cy="96" r="86" fill="#fff" opacity=".22"/><rect x="64" y="56" width="300" height="46" rx="23" fill="#fff" opacity=".92"/><rect x="64" y="123" width="205" height="20" rx="10" fill="#fff" opacity=".72"/><rect x="64" y="154" width="260" height="20" rx="10" fill="#fff" opacity=".5"/><rect x="74" y="246" width="116" height="136" rx="18" fill="#dbeafe"/><rect x="216" y="224" width="116" height="158" rx="18" fill="#bfdbfe"/><rect x="358" y="246" width="116" height="136" rx="18" fill="#dbeafe"/><rect x="500" y="224" width="116" height="158" rx="18" fill="#bfdbfe"/><rect x="642" y="246" width="116" height="136" rx="18" fill="#dbeafe"/><path d="M108 291h46M108 315h46M250 276h46M250 303h46M392 291h46M392 315h46M534 276h46M534 303h46M676 291h46M676 315h46" stroke="#1e293b" stroke-width="9" stroke-linecap="round" opacity=".45"/></svg>