<svg xmlns="http://www.w3.org/2000/svg" width="720" height="720" viewBox="0 0 720 720"><defs><linearGradient id="g" x1="0" x2="1" y1="0" y2="1"><stop offset="0" stop-color="#2563eb"/><stop offset="1" stop-color="#14b8a6"/></linearGradient></defs><rect width="720" height="720" rx="56" fill="url(#g)"/><circle cx="580" cy="110" r="130" fill="#fff" opacity=".18"/><circle cx="100" cy="620" r="160" fill="#fbbf24" opacity=".18"/><rect x="156" y="160" width="408" height="420" rx="34" fill="#fff" opacity=".16"/><rect x="208" y="218" width="120" height="260" rx="22" fill="#fef3c7"/><rect x="342" y="262" width="92" height="216" rx="22" fill="#dbeafe"/><rect x="446" y="196" width="76" height="282" rx="22" fill="#bbf7d0"/><path d="M230 290h76M230 330h76M230 370h76M362 334h50M362 372h50M466 270h34M466 315h34M466 360h34" stroke="#0f172a" stroke-width="13" stroke-linecap="round" opacity=".45"/><text x="146" y="640" fill="#fff" font-family="Arial" font-size="38" font-weight="900">Thư viện số</text></svg>